<svg xmlns="http://www.w3.org/2000/svg" xmlns:xlink="http://www.w3.org/1999/xlink" width="512" height="512" viewBox="0 0 512 512">
  <defs>
    <clipPath id="clip-iPhone_14_Pro_1">
      <rect width="512" height="512"/>
    </clipPath>
  </defs>
  <g id="iPhone_14_Pro_1" data-name="iPhone 14 Pro – 1" clip-path="url(#clip-iPhone_14_Pro_1)">
    <rect width="512" height="512" fill="#6d69cc"/>
    <g id="Artwork_4" data-name="Artwork 4" transform="translate(374.202 312.826)" style="isolation: isolate">
      <g id="Group_18030" data-name="Group 18030" transform="translate(-219.727 -111.826)">
        <path id="Path_3728" data-name="Path 3728" d="M41.361,125.389q-1.213,1.177-1.213,1.874,0,1.066,2.426,2.72,1.507-.073,3.271-2.3a6.618,6.618,0,0,0,1.764-3.8q0-.625-1.212-1.36a5.976,5.976,0,0,0-1.8-.809,18.659,18.659,0,0,1,1.36-1.8,6.706,6.706,0,0,0,1.287-2.573q.146-1.433-.368-1.433-.405,0-1.838,1.212a7.82,7.82,0,0,1-2.095,1.434,18.953,18.953,0,0,1,1.8-1.985q1.359-1.433,1.36-1.837c0-.318-.2-.478-.588-.478q-1.4,0-3.859,2.444t-2.462,3.8a2,2,0,0,0,.955,1.507,24.754,24.754,0,0,1,2.5,2.058A11.608,11.608,0,0,1,41.361,125.389Z" transform="translate(-24.657 -59.048)" fill="#fff"/>
        <path id="Path_3729" data-name="Path 3729" d="M35.547,24.991a70.375,70.375,0,0,0,7.9-.809,30.308,30.308,0,0,0,7.24-2.426q8.49-4.079,14.958-18.376a2.605,2.605,0,0,0,.22-1.1Q65.867,0,63.478,0A2.167,2.167,0,0,0,61.42,1.433Q55.65,14.15,48.631,17.567,44,19.809,35.18,20.4a2.036,2.036,0,0,0-2.132,2.278A2.041,2.041,0,0,0,35.547,24.991Z" transform="translate(-20.791 0)" fill="#fff"/>
        <path id="Path_3730" data-name="Path 3730" d="M188.1,209.283q-6.1,0-6.689,3.528-.294,1.8,1.433,1.8a10.3,10.3,0,0,0,2.113-.33,10.4,10.4,0,0,1,1.93-.331,21.418,21.418,0,0,1,2.352.184,21.6,21.6,0,0,0,2.315.184q1.875,0,1.874-1.984a4.148,4.148,0,0,0-.073-.735Q193.065,209.283,188.1,209.283Z" transform="translate(-96.28 -111.31)" fill="#fff"/>
        <path id="Path_3731" data-name="Path 3731" d="M408.762,47.646q5.585,0,5.954-2.646c.024-.269.037-.527.037-.772q0-2.241-1.985-2.242a21.661,21.661,0,0,0-2.646.239,21.512,21.512,0,0,1-2.646.239,9.7,9.7,0,0,1-2.168-.423,9.773,9.773,0,0,0-2.352-.422q-1.948,0-1.58,2.131Q402.073,47.646,408.762,47.646Z" transform="translate(-212.483 -22.099)" fill="#fff"/>
        <path id="Path_3732" data-name="Path 3732" d="M196.518,76.7a1.048,1.048,0,0,0-.871-.551q-1.054,0-.825.919.825,3.492.825,3.528a1.974,1.974,0,0,1-.275,1.066q-1.421-3.859-2.429-4.594a1.97,1.97,0,0,0-1.1-.368q-1.238,0-1.237,1.1a1.691,1.691,0,0,0,.091.478q5.5,15.951,5.544,16.391a16.082,16.082,0,0,1,.091,1.654q0,5.75-5.6,5.941a7.244,7.244,0,0,1-3.147-.8,13.525,13.525,0,0,0-1.328-6.321Q180.3,83.466,172.279,79.24a10.31,10.31,0,0,0-4.215-.588q1.878,1.875,1.878,2.315c0,.049-.031.086-.092.11a30.839,30.839,0,0,1-4.4-2.058q-.412-.036-.779-.036-4.307,0-8.8,5.917-4.308,5.99-6.369,9.041-1.008-.772-4.536-8.453-2.566-5.549-3.345-7.424a1.288,1.288,0,0,0-1.328-.772,3.031,3.031,0,0,0-1.6.514q-2.611,1.654-2.337,3.087a28.391,28.391,0,0,0,2.612,6.872,13.336,13.336,0,0,1,1.7,5.7q0,6.027-2.062,7.681a7.431,7.431,0,0,1-3.922,1.127q-3.461-.2-6.112-5.72a102.5,102.5,0,0,1-4.4-10.364,22.976,22.976,0,0,0-4.307-5.953,11.5,11.5,0,0,0-7.652-2.426q-3.574,0-5.727,4.3a19.481,19.481,0,0,0-1.833,8.6,19.224,19.224,0,0,0,.275,2.664,19.244,19.244,0,0,1,.275,2.665,8.388,8.388,0,0,1-.962,4.079,3.53,3.53,0,0,1-2.747,2.145,5.121,5.121,0,0,1-3.622-2.072q-3.116-3.895-6.186-14.994a26.552,26.552,0,0,0-3.207-7.755,1.813,1.813,0,0,0-1.6-.661,5.886,5.886,0,0,0-2.979.882q-1.145.7-1.145,3.565,0,2.022,2.016,7.35a25.412,25.412,0,0,1,2.016,8.159,7.26,7.26,0,0,1-.916,3.822,3.618,3.618,0,0,1-1.811,1.268,6.33,6.33,0,0,1-1.839.456q-3.574-.06-6.294-5.729a102.5,102.5,0,0,1-4.4-10.364,22.977,22.977,0,0,0-4.307-5.953,11.5,11.5,0,0,0-7.652-2.426q-3.574,0-5.727,4.3A19.487,19.487,0,0,0,52,90.706a19.223,19.223,0,0,0,.275,2.664,19.26,19.26,0,0,1,.275,2.665,8.388,8.388,0,0,1-.963,4.079,3.551,3.551,0,0,1-2.691,2.141q-2.166-.3-3.861-4.346a33.129,33.129,0,0,1-2.2-9.335q-.367-4.778-.733-9.556Q41.1,70.64,40.5,66.45q-.413-3.013-1.879-3.013-1.192,0-4.4,2.572-.184.147-.183,1.286,0,1.249.871,10.18.87,9.482,1.558,14.811.24,1.859.414,2.882a65.938,65.938,0,0,1-8.3,5.607,26.722,26.722,0,0,1-12.555,3.307A14.223,14.223,0,0,1,9.851,102.8q-3.666-1.69-3.666-5.255a10.045,10.045,0,0,1,2.8-6.836q.55-.587,5.361-4.741,2.794-2.426,2.8-4.3,0-2.572-2.429-2.573-5.086,0-10.126,7.534Q0,93.462,0,98.461a9.538,9.538,0,0,0,4.765,8.526q4.352,2.757,11.454,2.756a33.3,33.3,0,0,0,14.159-3.6,31.593,31.593,0,0,0,8.568-5.439,12.123,12.123,0,0,0,3.436,4.961,10.345,10.345,0,0,0,6.139,2.763v.03c.115,0,.222-.007.334-.009.133.005.266.009.4.009h1.114v-.073a7.593,7.593,0,0,0,4.409-1.654,13.822,13.822,0,0,0,2.864-4.594q1.68,1.8,3.363,3.675a10.241,10.241,0,0,0,6.818,3.014q4.817,0,6.773-5.182a9.741,9.741,0,0,0,3.273,3.161,9.224,9.224,0,0,0,3.908,1.611v.043h.571c.039,0,.076,0,.115,0,.022,0,.045,0,.067,0h.634v-.024a9.048,9.048,0,0,0,5.386-1.777,17.54,17.54,0,0,0,4.164-4.521q.089,1.618,2.534,3.749a9.263,9.263,0,0,0,5.929,2.559v.013c.059,0,.113,0,.171,0,.034,0,.067,0,.1,0h1.115v-.048a7.893,7.893,0,0,0,4.724-1.679,13.817,13.817,0,0,0,2.889-4.594q1.7,1.8,3.393,3.675a10.376,10.376,0,0,0,6.878,3.014q4.86,0,6.833-5.182a9.788,9.788,0,0,0,3.3,3.161,9.472,9.472,0,0,0,3.852,1.6v.056c.164,0,.32-.008.48-.013.085,0,.171.013.254.013h.652v-.06a10.016,10.016,0,0,0,8.985-6.187,7.116,7.116,0,0,0,.638-2.1q.319.221,1.414.955.547.406.547.772a16.38,16.38,0,0,1-.547,3.4,16.482,16.482,0,0,0-.547,3.51q0,4.741,3.831,4.741,1.413,0,2.326-1.874a6.6,6.6,0,0,0,.73-2.867,34.426,34.426,0,0,1,.091-3.6q7.753,4.3,18.882,4.3a60.258,60.258,0,0,0,9.669-1.323,32.469,32.469,0,0,0,4.444-1.034c.364.133.839.311,1.44.538a13.248,13.248,0,0,0,2.6.714v.07q.436,0,.856-.019c.179.011.356.019.529.019v-.009a11.3,11.3,0,0,0,8.476-4.1,14.081,14.081,0,0,0,2.8-9.078Q202.978,85.819,196.518,76.7ZM67.488,102.24q-1.878,0-3.753-2.316a6.348,6.348,0,0,1-1.556-2.94,13.186,13.186,0,0,0-.595-3.933q-.87-2.94-2.7-2.719a8.242,8.242,0,0,0-.229-1.415,8.087,8.087,0,0,1-.229-1.562q0-3.16,3.845-3.161,2.654,0,6.636,10.584a14.436,14.436,0,0,1,1.145,4.741Q70.051,102.24,67.488,102.24Zm52.589,0q-1.878,0-3.753-2.316a6.348,6.348,0,0,1-1.556-2.94,13.171,13.171,0,0,0-.595-3.933q-.87-2.94-2.7-2.719a8.242,8.242,0,0,0-.229-1.415,8.087,8.087,0,0,1-.229-1.562q0-3.16,3.845-3.161,2.654,0,6.637,10.584a14.445,14.445,0,0,1,1.144,4.741Q122.64,102.24,120.077,102.24Zm59-.515q-2.29,1.14-2.654,1.287a21.018,21.018,0,0,1-6,.661,36.481,36.481,0,0,1-9.154-1.286q-6.134-1.58-6.133-3.822,1.189-2.315,3.021-5.513,4.805-8.415,9.2-8.416a7.488,7.488,0,0,1,4.943,1.948,28.979,28.979,0,0,1,2.837,3.16q4.76,5.88,4.76,9.188A4.855,4.855,0,0,1,179.074,101.725Z" transform="translate(0 -19.556)" fill="#fff"/>
        <path id="Path_3733" data-name="Path 3733" d="M5.364,59.807l.148.1c1.551,1,3.75,1.6,5.48.553a3.274,3.274,0,0,0,.418-5.4c-.041-.029-.082-.057-.124-.084a4.066,4.066,0,0,0-2.395-.615,9.353,9.353,0,0,0-2.657.908,5.634,5.634,0,0,1-3.523-.177C2.317,56.939,4.015,58.892,5.364,59.807Z" transform="translate(-1.67 -28.817)" fill="#fff"/>
      </g>
    </g>
  </g>
</svg>
