<svg xmlns="http://www.w3.org/2000/svg" width="35.181" height="37.135" viewBox="0 0 35.181 37.135">
  <g id="Group_558" data-name="Group 558" transform="translate(0 0)">
    <path id="Path_420" data-name="Path 420" d="M4.4,11.144a15.4,15.4,0,0,1,9.247-6.48.939.939,0,0,0,.581-1.415A6.976,6.976,0,0,0,1.354,6.922a6.846,6.846,0,0,0,1.507,4.292A.954.954,0,0,0,4.4,11.144Z" transform="translate(-1.354 0)" fill="rgba(107,138,242,0.6)"/>
    <path id="Path_421" data-name="Path 421" d="M34.534,0a6.963,6.963,0,0,0-5.885,3.224.939.939,0,0,0,.584,1.42,15.386,15.386,0,0,1,9.287,6.432.954.954,0,0,0,1.542.054,6.843,6.843,0,0,0,1.443-4.207A6.949,6.949,0,0,0,34.534,0Z" transform="translate(-6.325 0)" fill="rgba(107,138,242,0.6)"/>
    <path id="Path_422" data-name="Path 422" d="M34.868,22.584a15.069,15.069,0,0,0-1.921-7.37,15.414,15.414,0,0,0-26.911.063,15.115,15.115,0,0,0,3.3,18.7l-1.294,1.81A1.724,1.724,0,0,0,8.454,38.2a1.749,1.749,0,0,0,2.429-.408l1.293-1.809a15.422,15.422,0,0,0,14.667,0l1.293,1.809a1.748,1.748,0,0,0,2.429.408,1.724,1.724,0,0,0,.413-2.414l-1.294-1.81A15.155,15.155,0,0,0,34.868,22.584ZM19.512,33.57A11.036,11.036,0,0,1,8.449,22.584,10.866,10.866,0,0,1,9.78,17.364a11.107,11.107,0,0,1,19.448-.028,10.856,10.856,0,0,1,1.345,5.248A11.036,11.036,0,0,1,19.512,33.57Z" transform="translate(-1.867 -1.384)" fill="rgba(107,138,242,0.6)"/>
    <path id="Path_423" data-name="Path 423" d="M28.687,26.9l-4.22-2.588a2,2,0,0,0-.729-1.212l.193-5.259a1.225,1.225,0,0,0-2.449-.089l-.194,5.264a2.026,2.026,0,0,0,2.064,3.472L27.4,28.972a1.241,1.241,0,0,0,.643.181,1.228,1.228,0,0,0,1.044-.577A1.214,1.214,0,0,0,28.687,26.9Z" transform="translate(-4.845 -3.129)" fill="rgba(107,138,242,0.6)"/>
  </g>
</svg>
