<svg xmlns="http://www.w3.org/2000/svg" width="16.365" height="18.564" viewBox="0 0 16.365 18.564">
  <g id="calendar-page-empty" opacity="0.58">
    <path id="Union_2" data-name="Union 2" d="M1.259,18.564a1.181,1.181,0,0,1-.885-.393A1.311,1.311,0,0,1,0,17.238V3.979a1.307,1.307,0,0,1,.374-.932,1.179,1.179,0,0,1,.885-.394H2.518V1.658A1.642,1.642,0,0,1,2.98.488,1.479,1.479,0,0,1,4.092,0h.629A1.481,1.481,0,0,1,5.833.488,1.638,1.638,0,0,1,6.3,1.658v.994h3.776V1.658A1.638,1.638,0,0,1,10.534.488,1.478,1.478,0,0,1,11.645,0h.63a1.476,1.476,0,0,1,1.11.488,1.638,1.638,0,0,1,.463,1.171v.994h1.258a1.18,1.18,0,0,1,.885.393,1.308,1.308,0,0,1,.374.933v13.26a1.307,1.307,0,0,1-.374.932,1.179,1.179,0,0,1-.885.393Zm0-1.326H15.105V6.63H1.259ZM11.419,1.42a.328.328,0,0,0-.088.239V4.641a.327.327,0,0,0,.088.238.293.293,0,0,0,.226.093h.629a.294.294,0,0,0,.227-.093.328.328,0,0,0,.088-.238V1.658A.33.33,0,0,0,12.5,1.42a.3.3,0,0,0-.227-.093h-.629A.3.3,0,0,0,11.419,1.42Zm-7.553,0a.334.334,0,0,0-.088.239V4.641a.332.332,0,0,0,.088.238.3.3,0,0,0,.227.093h.629a.294.294,0,0,0,.227-.093.329.329,0,0,0,.089-.238V1.658a.335.335,0,0,0-.089-.239.3.3,0,0,0-.227-.093H4.092A.3.3,0,0,0,3.865,1.42ZM2.588,11.626V7.992H6.9v3.634Z" transform="translate(0 0)" fill="#c7d5fb"/>
  </g>
</svg>
