<svg xmlns="http://www.w3.org/2000/svg" width="15.652" height="10.855" viewBox="0 0 15.652 10.855">
  <g id="contact_us" data-name="contact us" transform="translate(0.15 0.15)">
    <g id="Layer_1" transform="translate(0 0)">
      <g id="Group" transform="translate(0 0)">
        <path id="Shape" d="M13.436,10.555H1.917A1.864,1.864,0,0,1,0,8.754V1.8A1.864,1.864,0,0,1,1.917,0H13.436a1.863,1.863,0,0,1,1.916,1.8V8.754A1.863,1.863,0,0,1,13.436,10.555ZM.79,1.065A1.223,1.223,0,0,0,.543,1.8V8.754a1.336,1.336,0,0,0,1.374,1.29H13.436a1.335,1.335,0,0,0,1.373-1.29V1.8a1.234,1.234,0,0,0-.246-.735l-5.5,4.881a2.139,2.139,0,0,1-2.766,0ZM1.917.51a1.444,1.444,0,0,0-.736.2L6.666,5.576a1.562,1.562,0,0,0,2.021,0L14.17.711a1.432,1.432,0,0,0-.734-.2Z" fill="#c967e9" stroke="#c967e9" stroke-width="0.3"/>
      </g>
    </g>
  </g>
</svg>
