<svg xmlns="http://www.w3.org/2000/svg" width="13.187" height="13.187" viewBox="0 0 13.187 13.187">
  <path id="ic_dat_-_event_details_" data-name="ic_dat - event details " d="M.43,12.187A.448.448,0,0,1,0,11.732V1.329A.444.444,0,0,1,.43.863h2.2v-.4a.432.432,0,1,1,.861,0v.4H8.765v-.4a.432.432,0,1,1,.861,0v.4h2.131a.444.444,0,0,1,.43.466V11.721a.444.444,0,0,1-.43.466Zm.43-.92H11.326V3.93H.861ZM.861,3H11.337v-1.2H9.626v.25a.432.432,0,1,1-.861,0v-.25H3.5v.25a.432.432,0,1,1-.861,0v-.25H.861ZM3,9.245a.467.467,0,0,1,0-.932H6.1a.467.467,0,0,1,0,.932ZM3,7a.467.467,0,0,1,0-.931H9.2A.467.467,0,0,1,9.2,7Z" transform="translate(0.5 0.5)" fill="#6b8af2" stroke="#6b8af2" stroke-width="1"/>
</svg>
