<svg xmlns="http://www.w3.org/2000/svg" width="19.593" height="19.54" viewBox="0 0 19.593 19.54">
  <path id="filter" d="M8.724,18.129V12.34a2.521,2.521,0,0,1,0-4.864V.665a.662.662,0,1,1,1.325,0V7.508a2.511,2.511,0,0,1,0,4.832v5.789a.662.662,0,1,1-1.325,0Zm-.549-8.2A1.179,1.179,0,1,0,9.354,8.74,1.188,1.188,0,0,0,8.175,9.924Zm7.432,8.189V4.946a2.509,2.509,0,1,1,1.308-.016V18.112h.016a.662.662,0,1,1-1.324,0Zm-.534-15.6A1.179,1.179,0,1,0,16.252,1.33,1.188,1.188,0,0,0,15.073,2.514ZM0,16.264a2.485,2.485,0,0,1,1.842-2.416V.665a.662.662,0,1,1,1.324,0V13.847A2.509,2.509,0,1,1,0,16.264Zm1.308,0A1.179,1.179,0,1,0,2.488,15.08,1.188,1.188,0,0,0,1.309,16.264Z" transform="translate(19.193 0.4) rotate(90)" fill="#fff" stroke="#fff" stroke-width="0.8"/>
</svg>
