<svg xmlns="http://www.w3.org/2000/svg" width="15.852" height="17.778" viewBox="0 0 15.852 17.778">
  <g id="ic_hexagon" transform="translate(0.25 0.256)">
    <g id="Group_560" data-name="Group 560" transform="translate(0 0)">
      <path id="Path_424" data-name="Path 424" d="M36.51,4.366,29.183.048a.339.339,0,0,0-.346,0L21.51,4.366a.362.362,0,0,0-.176.312v7.916a.362.362,0,0,0,.176.312l7.327,4.318a.339.339,0,0,0,.346,0l7.327-4.318a.362.362,0,0,0,.176-.312V4.678A.362.362,0,0,0,36.51,4.366Zm-.522,8.02L29.01,16.5l-6.978-4.112v-7.5L29.01.775l6.978,4.112Z" transform="translate(-21.334 0)" fill="#c967e9" stroke="#c967e9" stroke-width="0.5"/>
    </g>
  </g>
</svg>
