<svg xmlns="http://www.w3.org/2000/svg" width="15.652" height="14.693" viewBox="0 0 15.652 14.693">
  <path id="home" d="M11.378,14.393h-7.4A1.927,1.927,0,0,1,2.057,12.46V7.88a.223.223,0,0,0-.222-.224H.765A.769.769,0,0,1,0,6.885V6.221A1.421,1.421,0,0,1,.494,5.2L6.73.31a1.6,1.6,0,0,1,1.892,0L14.858,5.2a1.421,1.421,0,0,1,.494,1.02v.664a.769.769,0,0,1-.765.771H13.518a.223.223,0,0,0-.222.224v4.58A1.927,1.927,0,0,1,11.378,14.393Zm-3.7-5.94A2.176,2.176,0,0,1,9.84,10.635v3.211h1.538a1.382,1.382,0,0,0,1.374-1.386V7.88a.769.769,0,0,1,.765-.771h1.069a.223.223,0,0,0,.222-.224V6.221a.883.883,0,0,0-.284-.587L8.289.742a1.063,1.063,0,0,0-1.225,0L.828,5.634a.88.88,0,0,0-.285.587v.664a.223.223,0,0,0,.222.223H1.835A.769.769,0,0,1,2.6,7.88v4.58a1.381,1.381,0,0,0,1.374,1.385H5.512v-3.21A2.176,2.176,0,0,1,7.676,8.452Zm0,.548a1.63,1.63,0,0,0-1.621,1.635v3.21H9.3v-3.21A1.63,1.63,0,0,0,7.676,9Z" transform="translate(0.15 0.15)" fill="#c967e9" stroke="#c967e9" stroke-width="0.3"/>
</svg>
