<svg xmlns="http://www.w3.org/2000/svg" width="17.328" height="17.587" viewBox="0 0 17.328 17.587">
  <g id="ic_clock-circular-outline" opacity="0.58">
    <g id="Group_548" data-name="Group 548">
      <path id="Path_412" data-name="Path 412" d="M8.664,0A8.739,8.739,0,0,0,0,8.793a8.739,8.739,0,0,0,8.664,8.793,8.739,8.739,0,0,0,8.664-8.793A8.739,8.739,0,0,0,8.664,0Zm0,15.716a6.923,6.923,0,0,1,0-13.845,6.923,6.923,0,0,1,0,13.845Z" fill="#c7d5fb"/>
      <path id="Path_413" data-name="Path 413" d="M49.386,22.306H45.493V17.554a.713.713,0,1,0-1.427,0V23.03a.719.719,0,0,0,.713.724h4.607a.724.724,0,0,0,0-1.448Z" transform="translate(-36.207 -13.784)" fill="#c7d5fb"/>
    </g>
  </g>
</svg>
