<svg xmlns="http://www.w3.org/2000/svg" width="10.44" height="10.541" viewBox="0 0 14.44 19.541">
  <g id="ic_location-newEvent" opacity="0.58">
    <g id="Group_541" data-name="Group 541" transform="translate(0 0)">
      <path id="Subtraction_2" data-name="Subtraction 2" d="M7.219,19.541a.656.656,0,0,1-.483-.211C6.461,19.031,0,11.954,0,7.077A7.157,7.157,0,0,1,7.219,0,7.158,7.158,0,0,1,14.44,7.077c0,4.876-6.462,11.954-6.737,12.253A.653.653,0,0,1,7.219,19.541ZM7.193,3.871a2.887,2.887,0,1,0,2.934,2.887A2.914,2.914,0,0,0,7.193,3.871Z" fill="#c7d5fb"/>
    </g>
  </g>
</svg>
