<svg xmlns="http://www.w3.org/2000/svg" width="17.271" height="18.35" viewBox="0 0 17.271 18.35">
  <path id="ic_partners" d="M66.005,368.74a3.237,3.237,0,0,0-4.787,0,3.542,3.542,0,0,0-.669,1.027l-1.769-1.879a.568.568,0,0,0-.847,0l-8.028,8.528a.657.657,0,0,0,0,.9l8.028,8.528a.585.585,0,0,0,.862,0l2.557-2.716a.662.662,0,0,0,.134-.679.6.6,0,0,0-.52-.41,2.227,2.227,0,0,1-1.383-.663,2.431,2.431,0,0,1,0-3.285,2.1,2.1,0,0,1,3.092,0,2.325,2.325,0,0,1,.625,1.469.612.612,0,0,0,.386.553.572.572,0,0,0,.639-.142l2.483-2.637a.677.677,0,0,0,0-.916l-1.769-1.879a3.627,3.627,0,0,0,.967-.711A3.754,3.754,0,0,0,66.005,368.74Zm-.848,4.169a2.08,2.08,0,0,1-1.323.663.6.6,0,0,0-.506.427.64.64,0,0,0,.149.663l2.066,2.195-1.308,1.39a3.372,3.372,0,0,0-.7-1.074,3.236,3.236,0,0,0-4.787,0,3.743,3.743,0,0,0,0,5.085,3.344,3.344,0,0,0,1.011.742l-1.383,1.469-7.2-7.612,7.166-7.612,2.066,2.2a.587.587,0,0,0,.624.158.647.647,0,0,0,.4-.537,2.321,2.321,0,0,1,.624-1.405,2.1,2.1,0,0,1,3.092,0A2.4,2.4,0,0,1,65.158,372.91Z" transform="translate(-49.727 -367.682)" fill="#c967e9"/>
</svg>
