<svg xmlns="http://www.w3.org/2000/svg" width="15.352" height="15.352" viewBox="0 0 15.352 15.352">
  <path id="ic_reminder" d="M.158,15.194a.539.539,0,0,1,0-.763l2.2-2.2A6.942,6.942,0,0,1,.661,7.7,7.015,7.015,0,0,1,1.3,4.815,2.592,2.592,0,0,1,0,2.591,2.614,2.614,0,0,1,2.578,0,2.576,2.576,0,0,1,4.813,1.3,7.118,7.118,0,0,1,7.67.7a6.9,6.9,0,0,1,2.857.6,2.578,2.578,0,1,1,3.53,3.5,6.807,6.807,0,0,1,.634,2.881A6.9,6.9,0,0,1,13,12.221l2.2,2.2a.539.539,0,0,1,0,.763.556.556,0,0,1-.384.158.532.532,0,0,1-.384-.158l-2.195-2.2A7.025,7.025,0,0,1,3.121,13l-2.2,2.2a.55.55,0,0,1-.383.159A.534.534,0,0,1,.158,15.194ZM4.39,2.789c-.026.013-.053.039-.079.053-.119.079-.238.17-.357.262a.19.19,0,0,0-.079.092,6.587,6.587,0,0,0-.74.736.361.361,0,0,0-.093.106c-.08.092-.146.2-.225.3l-.079.118a5.877,5.877,0,0,0,.675,7.367,5.939,5.939,0,0,0,8.264.25.579.579,0,0,1,.132-.25.678.678,0,0,1,.252-.132,5.867,5.867,0,0,0,.569-7.249c-.027-.039-.066-.079-.093-.118a2.69,2.69,0,0,0-.225-.3c-.027-.039-.066-.079-.093-.118-.119-.118-.225-.25-.344-.368s-.264-.237-.4-.356c-.026-.026-.053-.039-.079-.065a3.323,3.323,0,0,0-.344-.263.549.549,0,0,1-.093-.065,5.963,5.963,0,0,0-6.572,0ZM1.071,2.618A1.508,1.508,0,0,0,1.8,3.894c.013-.013.013-.027.027-.04.079-.132.184-.25.278-.382.052-.065.092-.132.146-.2a5.685,5.685,0,0,1,.383-.421c.119-.118.225-.224.344-.329.093-.079.172-.158.264-.236s.185-.145.278-.21.185-.145.291-.211a.225.225,0,0,1,.066-.052,1.513,1.513,0,0,0-2.8.8Zm10.407-.8a.226.226,0,0,0,.066.052,2.533,2.533,0,0,1,.3.211c.093.065.186.131.278.2s.186.171.278.25a2.264,2.264,0,0,1,.265.25,3.833,3.833,0,0,1,.437.474c.04.053.079.118.132.184.106.132.2.263.291.395.013.013.013.026.026.039a1.478,1.478,0,0,0,.728-1.276,1.5,1.5,0,0,0-1.507-1.5A1.558,1.558,0,0,0,11.478,1.815ZM7.683,8.235a.544.544,0,0,1-.543-.54V4.354a.542.542,0,0,1,1.084,0v2.8H10.01a.54.54,0,1,1,0,1.079Z" transform="translate(0 0)" fill="#c967e9"/>
</svg>
