<svg xmlns="http://www.w3.org/2000/svg" width="17.328" height="17.587" viewBox="0 0 17.328 17.587">
  <g id="ic_worldwide" transform="translate(0 0)" opacity="0.58">
    <g id="Group_550" data-name="Group 550" transform="translate(0 0)">
      <path id="Path_416" data-name="Path 416" d="M113.468,102.083a8.646,8.646,0,0,0-7.47-5.4c-.058-.006-.123-.006-.187-.012h-.023c-.035,0-.07-.006-.105-.006h-.018c-.064,0-.128-.006-.2-.006a8.471,8.471,0,0,0-3.306.67,8.638,8.638,0,0,0-4.684,4.757,8.826,8.826,0,0,0,0,6.726,8.637,8.637,0,0,0,8,5.433,1.018,1.018,0,0,0,.134-.006c.023,0,.053.006.076.006a.043.043,0,0,0,.029-.006c.053,0,.1-.006.152-.006h.058a.127.127,0,0,0,.047-.006,8.472,8.472,0,0,0,2.815-.652,8.638,8.638,0,0,0,4.684-4.757,8.853,8.853,0,0,0,0-6.726c-.006,0-.006,0-.006-.006Zm-11.016-3.6a9.314,9.314,0,0,0-1.5,3.245H98.93A7.51,7.51,0,0,1,102.452,98.483ZM98.4,102.908h2.3a15.44,15.44,0,0,0-.2,2.551,14.382,14.382,0,0,0,.222,2.551H98.4A7.644,7.644,0,0,1,98.4,102.908Zm.526,6.27h2.062a9.582,9.582,0,0,0,1.583,3.31A7.5,7.5,0,0,1,98.93,109.177Zm6.174,3.808c-1.209-.362-2.284-1.833-2.9-3.808h2.9v3.808Zm0-4.982h-3.195a12.883,12.883,0,0,1-.251-2.551,14.741,14.741,0,0,1,.222-2.551H105.1Zm0-6.27h-2.95c.59-2.04,1.665-3.482,2.95-3.814Zm6.91-.006h-1.606a9.561,9.561,0,0,0-1.262-2.918A7.549,7.549,0,0,1,112.014,101.727Zm-5.753-3.814c1.285.338,2.354,1.779,2.95,3.814h-2.95Zm0,4.994h3.224a14.14,14.14,0,0,1,.222,2.551,12.883,12.883,0,0,1-.251,2.551H106.26Zm0,10.078v-3.808h2.9C108.544,111.153,107.47,112.624,106.26,112.985Zm2.769-.824a9.9,9.9,0,0,0,1.349-2.984h1.635A7.466,7.466,0,0,1,109.029,112.161Zm3.51-4.158h-1.9a14.334,14.334,0,0,0,.222-2.551,15.441,15.441,0,0,0-.2-2.551h1.881A7.644,7.644,0,0,1,112.539,108Z" transform="translate(-96.81 -96.656)" fill="#c7d5fb"/>
    </g>
  </g>
</svg>
