<svg xmlns="http://www.w3.org/2000/svg" width="15.352" height="15.352" viewBox="0 0 15.352 15.352">
  <path id="ic_info" d="M0,7.677a7.676,7.676,0,1,1,7.683,7.676A7.69,7.69,0,0,1,0,7.677Zm1.085-.013a6.6,6.6,0,1,0,6.6-6.6A6.612,6.612,0,0,0,1.085,7.663ZM6.4,12.137a.543.543,0,0,1,0-1.085H7.643V6.816H6.4a.543.543,0,0,1,0-1.085H8.172a.537.537,0,0,1,.542.543v4.778H9.957a.543.543,0,1,1,0,1.085Zm.173-8.178a.869.869,0,1,1,.869.873A.87.87,0,0,1,6.573,3.959Z" transform="translate(0 0)" fill="#c967e9"/>
</svg>
