<svg xmlns="http://www.w3.org/2000/svg" width="33.6" height="33.6" viewBox="0 0 33.6 33.6">
  <g id="iOSSpinner" transform="translate(0 0)">
    <path id="Fill_2" data-name="Fill 2" d="M1.44,8.64h0A1.444,1.444,0,0,1,0,7.2V1.44A1.444,1.444,0,0,1,1.44,0h0A1.444,1.444,0,0,1,2.88,1.44V7.2A1.444,1.444,0,0,1,1.44,8.64" transform="translate(15.36 0)" fill="#fff" opacity="0.65"/>
    <path id="Fill_4" data-name="Fill 4" d="M.719,7.674h0A1.444,1.444,0,0,1,.192,5.707L3.072.719A1.444,1.444,0,0,1,5.039.192h0a1.444,1.444,0,0,1,.527,1.967L2.686,7.147a1.444,1.444,0,0,1-1.967.527" transform="translate(20.161 2.059)" fill="#fff" opacity="0.75"/>
    <path id="Fill_6" data-name="Fill 6" d="M.192,5.039h0A1.444,1.444,0,0,1,.719,3.072L5.707.192A1.444,1.444,0,0,1,7.674.719h0a1.444,1.444,0,0,1-.527,1.967L2.159,5.566A1.444,1.444,0,0,1,.192,5.039" transform="translate(23.675 7.681)" fill="#fff" opacity="0.85"/>
    <path id="Fill_8" data-name="Fill 8" d="M0,1.44H0A1.444,1.444,0,0,1,1.44,0H7.2A1.444,1.444,0,0,1,8.64,1.44h0A1.444,1.444,0,0,1,7.2,2.88H1.44A1.444,1.444,0,0,1,0,1.44" transform="translate(24.96 15.36)" fill="#fff" opacity="0.9"/>
    <path id="Fill_10" data-name="Fill 10" d="M.192.719h0A1.444,1.444,0,0,1,2.159.192l4.988,2.88a1.444,1.444,0,0,1,.527,1.967h0a1.444,1.444,0,0,1-1.967.527L.719,2.686A1.444,1.444,0,0,1,.192.719" transform="translate(23.675 20.161)" fill="#fff" opacity="0.2"/>
    <path id="Fill_12" data-name="Fill 12" d="M.719.192h0A1.444,1.444,0,0,1,2.686.719l2.88,4.988a1.444,1.444,0,0,1-.527,1.967h0a1.444,1.444,0,0,1-1.967-.527L.192,2.159A1.444,1.444,0,0,1,.719.192" transform="translate(20.161 23.675)" fill="#fff" opacity="0.25"/>
    <path id="Fill_14" data-name="Fill 14" d="M1.44,0h0A1.444,1.444,0,0,1,2.88,1.44V7.2A1.444,1.444,0,0,1,1.44,8.64h0A1.444,1.444,0,0,1,0,7.2V1.44A1.444,1.444,0,0,1,1.44,0" transform="translate(15.36 24.96)" fill="#fff" opacity="0.3"/>
    <path id="Fill_16" data-name="Fill 16" d="M5.039.192h0a1.444,1.444,0,0,1,.527,1.967L2.686,7.147a1.444,1.444,0,0,1-1.967.527h0A1.444,1.444,0,0,1,.192,5.707L3.072.719A1.444,1.444,0,0,1,5.039.192" transform="translate(7.681 23.675)" fill="#fff" opacity="0.35"/>
    <path id="Fill_18" data-name="Fill 18" d="M7.674.719h0a1.444,1.444,0,0,1-.527,1.967L2.159,5.566A1.444,1.444,0,0,1,.192,5.039h0A1.444,1.444,0,0,1,.719,3.072L5.707.192A1.444,1.444,0,0,1,7.674.719" transform="translate(2.059 20.161)" fill="#fff" opacity="0.4"/>
    <path id="Fill_20" data-name="Fill 20" d="M8.64,1.44h0A1.444,1.444,0,0,1,7.2,2.88H1.44A1.444,1.444,0,0,1,0,1.44H0A1.444,1.444,0,0,1,1.44,0H7.2A1.444,1.444,0,0,1,8.64,1.44" transform="translate(0 15.36)" fill="#fff" opacity="0.45"/>
    <path id="Fill_22" data-name="Fill 22" d="M7.674,5.039h0a1.444,1.444,0,0,1-1.967.527L.719,2.686A1.444,1.444,0,0,1,.192.719h0A1.444,1.444,0,0,1,2.159.192l4.988,2.88a1.444,1.444,0,0,1,.527,1.967" transform="translate(2.059 7.681)" fill="#fff" opacity="0.5"/>
    <path id="Fill_24" data-name="Fill 24" d="M5.039,7.674h0a1.444,1.444,0,0,1-1.967-.527L.192,2.159A1.444,1.444,0,0,1,.719.192h0A1.444,1.444,0,0,1,2.686.719l2.88,4.988a1.444,1.444,0,0,1-.527,1.967" transform="translate(7.681 2.059)" fill="#fff" opacity="0.55"/>
  </g>
</svg>
