<svg xmlns="http://www.w3.org/2000/svg" width="9.499" height="12.349" viewBox="0 0 9.499 12.349">
  <g id="ic_location_event_info" data-name="ic_location_event info" transform="translate(0)">
    <g id="Group_541" data-name="Group 541" transform="translate(0 0)">
      <path id="Subtraction_2" data-name="Subtraction 2" d="M4.749,12.349a.44.44,0,0,1-.318-.133C4.251,12.026,0,7.554,0,4.472A4.622,4.622,0,0,1,4.749,0,4.622,4.622,0,0,1,9.5,4.472c0,3.081-4.251,7.554-4.432,7.743A.438.438,0,0,1,4.749,12.349Zm-.017-9.9A1.882,1.882,0,0,0,2.8,4.271a1.881,1.881,0,0,0,1.93,1.824,1.881,1.881,0,0,0,1.93-1.824A1.881,1.881,0,0,0,4.732,2.446Z" transform="translate(0)" fill="#6b8af2"/>
    </g>
  </g>
</svg>
