<svg id="event_2_" data-name="event(2)" xmlns="http://www.w3.org/2000/svg" width="59.52" height="49.92" viewBox="0 0 59.52 49.92">
  <path id="Path_1331" data-name="Path 1331" d="M72.755,141.107Z" transform="translate(-33.656 -93.835)" fill="#fff"/>
  <g id="Group_1369" data-name="Group 1369" transform="translate(18.758 18.487)">
    <ellipse id="Ellipse_5" data-name="Ellipse 5" cx="2.684" cy="2.68" rx="2.684" ry="2.68" transform="translate(0 0)" fill="#fff"/>
    <ellipse id="Ellipse_6" data-name="Ellipse 6" cx="2.684" cy="2.68" rx="2.684" ry="2.68" transform="translate(9.272 0)" fill="#fff"/>
    <ellipse id="Ellipse_7" data-name="Ellipse 7" cx="2.684" cy="2.68" rx="2.684" ry="2.68" transform="translate(18.544 0)" fill="#fffcf8"/>
    <ellipse id="Ellipse_8" data-name="Ellipse 8" cx="2.684" cy="2.68" rx="2.684" ry="2.68" transform="translate(0 8.663)" fill="#fff"/>
    <ellipse id="Ellipse_9" data-name="Ellipse 9" cx="2.684" cy="2.68" rx="2.684" ry="2.68" transform="translate(18.544 8.663)" fill="#fff"/>
    <ellipse id="Ellipse_10" data-name="Ellipse 10" cx="2.684" cy="2.68" rx="2.684" ry="2.68" transform="translate(9.272 8.663)" fill="#fff"/>
    <ellipse id="Ellipse_11" data-name="Ellipse 11" cx="2.684" cy="2.68" rx="2.684" ry="2.68" transform="translate(9.272 17.325)" fill="#fff"/>
    <ellipse id="Ellipse_12" data-name="Ellipse 12" cx="2.684" cy="2.68" rx="2.684" ry="2.68" transform="translate(0 17.325)" fill="#fff"/>
  </g>
  <g id="Group_1371" data-name="Group 1371" transform="translate(9.429 18.343)" opacity="0.4">
    <path id="Path_1345" data-name="Path 1345" d="M81.366,204.278a.873.873,0,0,0,1.233,0L83.881,203l1.282,1.28a.871.871,0,0,0,1.233-1.231l-1.282-1.28,1.282-1.28a.871.871,0,0,0-1.233-1.231l-1.282,1.28-1.282-1.28a.871.871,0,1,0-1.233,1.231l1.282,1.28-1.282,1.28A.869.869,0,0,0,81.366,204.278Z" transform="translate(-81.11 -199.001)" fill="#fff"/>
    <path id="Path_1346" data-name="Path 1346" d="M81.366,278.9a.873.873,0,0,0,1.233,0l1.282-1.28,1.282,1.28a.871.871,0,1,0,1.233-1.231l-1.282-1.28,1.282-1.28a.871.871,0,1,0-1.233-1.231l-1.282,1.28-1.282-1.28a.871.871,0,1,0-1.233,1.231l1.282,1.28-1.282,1.28A.87.87,0,0,0,81.366,278.9Z" transform="translate(-81.11 -264.964)" fill="#fff"/>
    <path id="Path_1347" data-name="Path 1347" d="M86.393,348.506a.873.873,0,0,0-1.233,0l-1.282,1.28-1.282-1.28a.871.871,0,0,0-1.233,1.231l1.282,1.28-1.282,1.28a.871.871,0,0,0,1.233,1.231l1.282-1.28,1.282,1.28a.871.871,0,0,0,1.233-1.231l-1.282-1.28,1.282-1.28A.87.87,0,0,0,86.393,348.506Z" transform="translate(-81.108 -330.926)" fill="#fff"/>
  </g>
  <path id="Path_1348" data-name="Path 1348" d="M59.47,85.122l-2.378-12.5a.872.872,0,0,0-1.713.325l2.378,12.5a1.2,1.2,0,0,1-1.264,1.36H43.59l8.369-8.357a.88.88,0,0,0,.255-.616V56.323l2.391,12.566a.872.872,0,0,0,1.713-.325l-4.11-21.6a2.427,2.427,0,0,0-2.422-2.313H42.145v-2.8a.872.872,0,0,0-1.744,0v2.8H34.562v-2.8a.872.872,0,0,0-1.744,0v2.8H26.979v-2.8a.872.872,0,0,0-1.744,0v2.8H19.4v-2.8a.872.872,0,0,0-1.744,0v2.8H11.813v-2.8a.872.872,0,0,0-1.744,0v2.8H2.428A2.429,2.429,0,0,0,0,47.077v41.4A2.429,2.429,0,0,0,2.428,90.9H24.073a.871.871,0,1,0,0-1.741H2.428a.685.685,0,0,1-.684-.683v-41.4a.685.685,0,0,1,.684-.683h7.641V50.3a.872.872,0,0,0,1.744,0V46.394h5.839V50.3a.872.872,0,0,0,1.744,0V46.394h5.839V50.3a.872.872,0,0,0,1.744,0V46.394h5.839V50.3a.872.872,0,0,0,1.744,0V46.394H40.4V50.3a.872.872,0,0,0,1.744,0V46.394h7.641a.685.685,0,0,1,.684.683V76.964H40.684a2.429,2.429,0,0,0-2.428,2.425v9.772H28.141a.871.871,0,1,0,0,1.741H39.128a.878.878,0,0,0,.617-.255l2.1-2.1H56.493A2.942,2.942,0,0,0,59.47,85.122ZM40,87.929V79.388a.685.685,0,0,1,.684-.683h8.553Z" transform="translate(0 -40.982)" fill="#fff"/>
</svg>
