<svg xmlns="http://www.w3.org/2000/svg" width="19" height="19.001" viewBox="0 0 19 19.001">
  <path id="menu" d="M1.247,19A1.246,1.246,0,0,1,0,17.754a1.263,1.263,0,0,1,1.263-1.263H9.831a1.246,1.246,0,0,1,1.247,1.246v.017A1.246,1.246,0,0,1,9.831,19Zm0-8.258A1.246,1.246,0,0,1,0,9.5,1.263,1.263,0,0,1,1.263,8.235h13.6a1.246,1.246,0,0,1,1.246,1.246V9.5a1.246,1.246,0,0,1-1.246,1.246Zm0-8.234A1.246,1.246,0,0,1,0,1.264,1.263,1.263,0,0,1,1.263,0H17.753A1.246,1.246,0,0,1,19,1.247v.017a1.246,1.246,0,0,1-1.247,1.246Z" fill="#fff"/>
</svg>
