<svg id="ic_show_more" data-name="ic_show more" xmlns="http://www.w3.org/2000/svg" width="3.909" height="14.659" viewBox="0 0 3.909 14.659">
  <g id="more-vert">
    <path id="Path_419" data-name="Path 419" d="M154.954,3.665a1.9,1.9,0,0,0,1.954-1.832,1.959,1.959,0,0,0-3.909,0A1.9,1.9,0,0,0,154.954,3.665Zm0,1.832A1.9,1.9,0,0,0,153,7.329a1.959,1.959,0,0,0,3.909,0A1.9,1.9,0,0,0,154.954,5.5Zm0,5.5A1.9,1.9,0,0,0,153,12.826a1.959,1.959,0,0,0,3.909,0A1.9,1.9,0,0,0,154.954,10.994Z" transform="translate(-153)" fill="#9970ed"/>
  </g>
</svg>
