<svg xmlns="http://www.w3.org/2000/svg" width="15.352" height="20.076" viewBox="0 0 15.352 20.076">
  <path id="ic_sign_in" data-name="ic_sign in" d="M.685,20.076A.71.71,0,0,1,0,19.367V.71A.691.691,0,0,1,.685,0H9.714A.691.691,0,0,1,10.4.71V7.678a.686.686,0,1,1-1.371,0V1.418H1.37v17.24H9.028V12.4a.686.686,0,1,1,1.371,0v6.968a.69.69,0,0,1-.685.709Zm6.027-5.707L2.887,10.427a.415.415,0,0,1-.07-.087.056.056,0,0,1-.014-.03.372.372,0,0,0-.043-.073c0-.014,0-.03-.015-.03-.014-.029-.014-.044-.028-.073a.466.466,0,0,1,0-.234.115.115,0,0,1,.028-.073c0-.014,0-.029.015-.029.014-.03.028-.058.043-.088A.014.014,0,0,1,2.817,9.7a.391.391,0,0,1,.07-.088L6.712,5.667a.569.569,0,0,1,.821,0,.612.612,0,0,1,0,.847L4.7,9.433h10.07a.6.6,0,0,1,0,1.2H4.7l2.832,2.921a.577.577,0,0,1,0,.818.569.569,0,0,1-.821,0Z" fill="#c967e9"/>
</svg>
