<svg xmlns="http://www.w3.org/2000/svg" width="15" height="13" viewBox="0 0 15 13">
  <path id="twitter-2" d="M411.5,142.809l1.5-.317a14.507,14.507,0,0,1-1.5,1.585h0a6.72,6.72,0,0,0,0,.951c-2.88,13.062-13.5,7.292-13.5,7.292,3.87.1,4.2-1.585,4.2-1.585a3.11,3.11,0,0,1-2.7-1.9.9.9,0,0,0,1.2-.317,2.9,2.9,0,0,1-2.1-3.17,3.025,3.025,0,0,0,1.47.6c-.27-.349-2.55-3.234-1.17-4.724a7.45,7.45,0,0,0,6.09,3.456l.3-.063a2.626,2.626,0,0,1-.06-.7,3.243,3.243,0,0,1,3.15-3.329c2.1,0,2.55,1.268,2.55,1.268l1.5-.951C412.4,140.907,412.25,142.492,411.5,142.809Z" transform="translate(-398 -140.59)" fill="#c7d5fb" opacity="0.58"/>
</svg>
