<svg xmlns="http://www.w3.org/2000/svg" width="8.96" height="8.252" viewBox="0 0 8.96 8.252">
  <path id="Union_4" data-name="Union 4" d="M.317,8.252A.319.319,0,0,1,0,7.982H0V.9A.312.312,0,0,1,.317.585H1.937V.316a.317.317,0,0,1,.634,0V.585H6.443V.316a.317.317,0,0,1,.633,0V.585H8.643A.312.312,0,0,1,8.96.9V7.936a.313.313,0,0,1-.317.316Zm1.674-2.19a.342.342,0,0,0,.333.357h2.4a.358.358,0,0,0,0-.714h-2.4A.342.342,0,0,0,1.992,6.062Zm0-1.724a.343.343,0,0,0,.333.358h4.8a.358.358,0,0,0,0-.715h-4.8A.342.342,0,0,0,1.992,4.337ZM.633,2.03h7.7V1.215H7.077v.169a.317.317,0,0,1-.633,0V1.215H2.57v.169a.317.317,0,0,1-.634,0V1.215H.633Z" fill="#4dabff"/>
</svg>
